<?xml version="1.0" encoding="utf-8"?>
<svg width="292px" height="338px" viewBox="0 0 300 338" xmlns="http://www.w3.org/2000/svg">
  <g transform="matrix(1.028959, 0, 0, 1.028959, 4.000004, 0.008912)">
    <path style="fill: rgb(216, 216, 216); fill-opacity: 0; stroke: rgb(0, 0, 0); stroke-width: 8px;" d="M 4.063 328.469 L 4.063 323.99 C 2.08 323.367 8.783 302.478 4.427 275.265 C -1.481 238.355 -6.92 176.65 26.47 145.607 C 4.554 74.486 -1.422 25.95 8.542 0 C 56.566 3.969 89.413 32.835 107.083 86.596 C 102.451 74.039 97.253 61.764 91.49 49.773 C 128.315 36.561 162.107 37.127 192.865 51.469"/>
    <path style="fill: rgb(216, 216, 216); fill-opacity: 0; stroke: rgb(0, 0, 0); stroke-width: 8px;" d="M 94.98 0.001 L 94.98 4.48 C 92.997 5.103 99.7 25.992 95.344 53.205 C 89.436 90.115 83.997 151.82 117.387 182.863 C 95.471 253.984 89.495 302.52 99.459 328.47 C 147.483 324.501 180.33 295.635 198 241.874 C 193.368 254.431 188.17 266.706 182.407 278.697 C 219.232 291.909 253.024 291.343 283.782 277.001" transform="matrix(-1, 0, 0, -1, 374.698944, 328.470994)"/>
    <path style="fill: rgb(216, 216, 216); fill-opacity: 0; stroke: rgb(0, 0, 0); stroke-width: 8px;" d="M 75.788 178.575 C 80.09 188.076 87.688 196.296 98.58 203.234 C 101.778 205.271 103.059 222.223 102.424 254.089 C 107.609 268.269 121.983 275.061 145.548 274.466 M 210.832 178.575 C 206.53 188.076 198.932 196.296 188.04 203.234 C 184.842 205.271 183.561 222.223 184.196 254.089 C 179.011 268.269 164.637 275.061 141.072 274.466"/>
    <path style="fill: rgb(216, 216, 216); fill-opacity: 0; stroke: rgb(0, 0, 0); stroke-width: 8px;" d="M 143.655 242.123 C 140.726 239.926 136.621 238.643 134.058 238.643 C 126.368 238.643 122.707 243.678 123.074 253.747 C 123.224 257.855 130.159 261.732 142.641 265.13 M 141.308 242 C 144.237 239.803 147.971 238.643 150.534 238.643 C 158.224 238.643 161.885 243.678 161.518 253.747 C 161.368 257.855 154.122 261.686 141.64 265.084"/>
    <path style="fill: rgb(216, 216, 216); fill-opacity: 0; stroke: rgb(0, 0, 0); stroke-width: 8px;" d="M 75.791 140.011 L 105.129 162.001 L 105.129 178.575 C 85.372 169.137 75.593 156.282 75.791 140.011 Z"/>
    <path style="fill: rgb(216, 216, 216); fill-opacity: 0; stroke: rgb(0, 0, 0); stroke-width: 8px;" d="M 181.494 178.575 L 210.832 156.585 L 210.832 140.011 C 191.075 149.449 181.296 162.304 181.494 178.575 Z" transform="matrix(-1, 0, 0, -1, 392.323059, 318.585999)"/>
  </g>
</svg>