<svg viewBox="0 0 500 459.6" xmlns="http://www.w3.org/2000/svg">
  <path style="stroke: rgb(0, 0, 0); stroke-width: 0px; fill: rgb(255, 255, 255);" d="M 16.65 370.121 L 14.534 391.906 C 12.556 373.429 14.121 349.208 19.229 319.242 C 12.063 335.908 8.604 349.74 8.853 360.739 C 4.091 343.2 6.054 321.795 14.743 296.525 C 17.099 291.788 23.034 283.416 32.549 271.409 C 20.318 280.993 9.469 294.104 0 310.743 C 4.874 297.158 11.562 283.172 20.063 268.787 C 25.926 263.244 34.046 257.453 44.423 251.415 L 14.334 257.251 C 37.015 250.847 53.296 241.366 63.179 228.811 L 38.447 235.462 L 66.315 219.871 C 66.059 219.867 30.531 215.779 30.531 215.498 C 49.276 214.759 65.439 209.532 79.018 199.818 L 49.77 205.138 C 52.391 203.96 66.195 197.678 91.183 186.293 L 56.335 189.178 C 69.922 181.908 92.809 173.132 124.997 162.851 L 94.682 159.35 C 107.316 159.852 127.657 152.227 155.707 136.472 L 132.824 134.816 L 190.001 124.186 C 181.564 124.232 173.098 123.184 164.606 121.046 L 203.952 113.901 C 223.654 82.48 226.469 44.954 212.399 1.321 L 233.23 22.125 C 258.763 36.059 272.17 54.589 273.447 77.714 L 282.585 81.038 C 286.157 80.626 297.022 59.295 315.182 17.047 L 311.995 0 C 331.62 24.883 342.417 47.922 344.386 69.117 C 336.232 88.274 337.442 99.04 348.011 101.416 C 363.291 104.85 376.902 110.127 388.848 117.246 C 392.774 130.294 399.817 140.015 409.975 146.412 C 419.459 152.383 447.577 159.448 494.333 167.608 C 496.721 170.115 493.874 176.082 485.792 185.506 L 485.764 191.568 L 473.053 202.325 C 467.39 210.417 460.959 214.082 453.757 213.32 C 417.239 214.905 388.344 219.927 367.077 228.388 C 354.733 243.471 340.83 251.637 325.369 252.886 L 344.648 231.981 C 333.931 242.446 326.13 247.575 321.247 247.369 C 305.045 246.688 287.921 247.741 269.875 250.533 L 298.52 234.795 C 285.775 239.221 265.544 234.205 237.827 219.748 C 211.129 212.958 194.604 209.977 188.249 210.807 L 186.336 216.678 L 189.074 220.275 L 276.77 239.303 L 261.291 253.787 L 291.51 252.203 C 279.695 254.848 271.179 259.732 265.963 266.855 L 285.95 261.892 C 272.291 268.011 266.229 271.582 267.762 272.603 C 279.129 269.59 289.042 268.501 297.503 269.337 C 282.082 277.281 267.918 286.324 255.011 296.468 L 277.007 285.299 C 275.39 293.834 271.074 301.35 264.056 307.846 C 256.865 319.382 310.602 290.909 295.319 300.323 C 292.189 300.323 264.186 333.435 273.702 333.435 C 269.862 341.646 289.888 347.77 294.862 345.54 L 283.061 360.137 C 274.216 367.945 308.412 358.825 308.449 358.363 C 308.47 358.104 287.166 380.322 296.671 391.017 C 313.816 410.311 359.548 421.091 387.082 435.067 C 402.848 443.069 407.887 461.365 410.24 459.475 L 107.41 458.759 L 107.419 458.732 C 107.532 458.338 52.16 459.475 51.262 459.475 C 43.981 459.475 29.109 438.052 28.615 430.097 C 27.881 418.294 18.254 415.724 18.305 415.703 C 18.631 415.569 22.385 412.276 22.453 412.138 C 22.694 411.653 33.842 399.886 16.65 370.121 Z M 187.149 211.014 C 187.518 210.851 187.889 210.69 188.261 210.529 L 189.757 205.936 C 186.994 207.649 184.483 209.43 182.225 211.278 L 186.281 216.606 L 188.167 210.818 C 187.791 210.87 187.452 210.935 187.149 211.014 Z M 249.553 194.481 C 227.133 191.48 214.666 189.445 212.151 188.374 C 215.636 186.244 239.341 179.932 239.341 179.932 C 239.341 179.932 200.438 186.398 196.204 186.388 L 196.148 186.561 L 205.646 190.561 C 205.227 192.747 210.957 194.269 222.836 195.125 C 216.133 194.963 209.837 196.142 203.949 198.663 C 198.689 200.915 193.991 203.319 189.855 205.875 L 188.352 210.49 C 206.238 202.773 226.638 197.438 249.553 194.481 Z M 294.862 345.54 L 295.833 344.685 C 295.664 345.047 295.329 345.33 294.862 345.54 Z M 343.804 168.48 C 357.819 173.691 372.561 175.31 388.033 173.337 C 398.179 174.754 403.696 174.236 404.583 171.782 L 385.783 170.095 C 381.375 166.618 377.361 164.164 373.739 162.728 C 356.479 166.233 340.056 165.606 324.472 160.848 C 331.402 164.475 337.846 167.018 343.804 168.48 Z M 230.863 77.701 C 238.921 84.699 242.304 94.202 241.011 106.209 L 247.392 95.535 C 248.513 102.083 248.085 108.865 246.107 115.881 L 247.987 116.087 C 251.37 105.646 250.628 96.298 245.76 88.041 L 244.463 91.944 C 242.008 85.707 238.152 80.65 232.897 76.773 L 228.886 51.972 C 228.99 68.316 229.65 76.893 230.863 77.701 Z"></path>
</svg>
