<svg viewBox="0 0 500 500" xmlns="http://www.w3.org/2000/svg">
  <defs></defs>
  <path style="fill: rgb(216, 216, 216); fill-opacity: 0; stroke-width: 9px; stroke: rgb(0, 0, 0); stroke-linecap: round; stroke-linejoin: round;" d="M 223.375 18.255 C 113.737 36.736 46.452 102.529 21.521 215.634 C 4.55 292.629 31.37 362.583 101.981 425.496 C 101.981 425.496 102.797 410.777 104.429 381.339 C 126.737 403.195 148.725 414.778 170.393 416.086 C 156.179 397.412 148.333 376.16 146.855 352.329 C 170.033 376.099 196.789 385.094 227.124 379.314 C 195.412 363.909 180.997 341.437 183.88 311.9 C 235.483 321.439 263.095 347.067 266.719 388.783 C 250.134 438.286 207.041 459.916 137.44 453.673 C 170.615 473.496 208.882 482.821 252.24 481.647 C 395.731 463.198 472.787 383.304 483.411 241.963 C 476.311 125.189 425.52 70.811 331.038 78.829 C 325.62 62.741 333.409 47.526 354.406 33.185 C 316.142 45.093 295.053 63.095 291.137 87.192 L 263.839 54.682 C 274.557 98.843 271.937 138.622 255.977 174.019 L 298.774 203.62 L 315.688 167.876 C 358.338 164.677 377.732 180.97 373.871 216.753 C 358.445 275.256 319.027 286.71 255.619 251.115 C 159.233 200.061 148.485 122.441 223.375 18.255 Z"></path>
  <path style="fill: rgb(216, 216, 216); fill-opacity: 0; stroke-width: 9px; stroke-linecap: round; stroke: rgb(0, 0, 0);" d="M 311.836 116.695 L 300.267 134.943"></path>
</svg>