<svg viewBox="0 0 1333 459.6" xmlns="http://www.w3.org/2000/svg">
  <path style="stroke: rgb(0, 0, 0); stroke-width: 0px; fill: rgb(255, 255, 255);" d="M 16.65 370.121 L 14.534 391.906 C 12.556 373.429 14.121 349.208 19.229 319.242 C 12.063 335.908 8.604 349.74 8.853 360.739 C 4.091 343.2 6.054 321.795 14.743 296.525 C 17.099 291.788 23.034 283.416 32.549 271.409 C 20.318 280.993 9.469 294.104 0 310.743 C 4.874 297.158 11.562 283.172 20.063 268.787 C 25.926 263.244 34.046 257.453 44.423 251.415 L 14.334 257.251 C 37.015 250.847 53.296 241.366 63.179 228.811 L 38.447 235.462 L 66.315 219.871 C 66.059 219.867 30.531 215.779 30.531 215.498 C 49.276 214.759 65.439 209.532 79.018 199.818 L 49.77 205.138 C 52.391 203.96 66.195 197.678 91.183 186.293 L 56.335 189.178 C 69.922 181.908 92.809 173.132 124.997 162.851 L 94.682 159.35 C 107.316 159.852 127.657 152.227 155.707 136.472 L 132.824 134.816 L 190.001 124.186 C 181.564 124.232 173.098 123.184 164.606 121.046 L 203.952 113.901 C 223.654 82.48 226.469 44.954 212.399 1.321 L 233.23 22.125 C 258.763 36.059 272.17 54.589 273.447 77.714 L 282.585 81.038 C 286.157 80.626 297.022 59.295 315.182 17.047 L 311.995 0 C 331.62 24.883 342.417 47.922 344.386 69.117 C 336.232 88.274 337.442 99.04 348.011 101.416 C 363.291 104.85 376.902 110.127 388.848 117.246 C 392.774 130.294 399.817 140.015 409.975 146.412 C 419.459 152.383 447.577 159.448 494.333 167.608 C 496.721 170.115 493.874 176.082 485.792 185.506 L 485.764 191.568 L 473.053 202.325 C 467.39 210.417 460.959 214.082 453.757 213.32 C 417.239 214.905 388.344 219.927 367.077 228.388 C 354.733 243.471 340.83 251.637 325.369 252.886 L 344.648 231.981 C 333.931 242.446 326.13 247.575 321.247 247.369 C 305.045 246.688 287.921 247.741 269.875 250.533 L 298.52 234.795 C 285.775 239.221 265.544 234.205 237.827 219.748 C 211.129 212.958 194.604 209.977 188.249 210.807 L 186.336 216.678 L 189.074 220.275 L 276.77 239.303 L 261.291 253.787 L 291.51 252.203 C 279.695 254.848 271.179 259.732 265.963 266.855 L 285.95 261.892 C 272.291 268.011 266.229 271.582 267.762 272.603 C 279.129 269.59 289.042 268.501 297.503 269.337 C 282.082 277.281 267.918 286.324 255.011 296.468 L 277.007 285.299 C 275.39 293.834 271.074 301.35 264.056 307.846 C 256.865 319.382 310.602 290.909 295.319 300.323 C 292.189 300.323 264.186 333.435 273.702 333.435 C 269.862 341.646 289.888 347.77 294.862 345.54 L 283.061 360.137 C 274.216 367.945 308.412 358.825 308.449 358.363 C 308.47 358.104 287.166 380.322 296.671 391.017 C 313.816 410.311 359.548 421.091 387.082 435.067 C 402.848 443.069 407.887 461.365 410.24 459.475 L 107.41 458.759 L 107.419 458.732 C 107.532 458.338 52.16 459.475 51.262 459.475 C 43.981 459.475 29.109 438.052 28.615 430.097 C 27.881 418.294 18.254 415.724 18.305 415.703 C 18.631 415.569 22.385 412.276 22.453 412.138 C 22.694 411.653 33.842 399.886 16.65 370.121 Z M 187.149 211.014 C 187.518 210.851 187.889 210.69 188.261 210.529 L 189.757 205.936 C 186.994 207.649 184.483 209.43 182.225 211.278 L 186.281 216.606 L 188.167 210.818 C 187.791 210.87 187.452 210.935 187.149 211.014 Z M 249.553 194.481 C 227.133 191.48 214.666 189.445 212.151 188.374 C 215.636 186.244 239.341 179.932 239.341 179.932 C 239.341 179.932 200.438 186.398 196.204 186.388 L 196.148 186.561 L 205.646 190.561 C 205.227 192.747 210.957 194.269 222.836 195.125 C 216.133 194.963 209.837 196.142 203.949 198.663 C 198.689 200.915 193.991 203.319 189.855 205.875 L 188.352 210.49 C 206.238 202.773 226.638 197.438 249.553 194.481 Z M 294.862 345.54 L 295.833 344.685 C 295.664 345.047 295.329 345.33 294.862 345.54 Z M 343.804 168.48 C 357.819 173.691 372.561 175.31 388.033 173.337 C 398.179 174.754 403.696 174.236 404.583 171.782 L 385.783 170.095 C 381.375 166.618 377.361 164.164 373.739 162.728 C 356.479 166.233 340.056 165.606 324.472 160.848 C 331.402 164.475 337.846 167.018 343.804 168.48 Z M 230.863 77.701 C 238.921 84.699 242.304 94.202 241.011 106.209 L 247.392 95.535 C 248.513 102.083 248.085 108.865 246.107 115.881 L 247.987 116.087 C 251.37 105.646 250.628 96.298 245.76 88.041 L 244.463 91.944 C 242.008 85.707 238.152 80.65 232.897 76.773 L 228.886 51.972 C 228.99 68.316 229.65 76.893 230.863 77.701 Z"></path>
  <path d="M 613.087 316.815 L 521.812 316.815 L 521.812 310.73 L 601.161 196.089 L 527.897 196.089 L 527.897 187.813 L 613.331 187.813 L 613.331 194.141 L 533.739 308.539 L 613.087 308.539 L 613.087 316.815 Z M 740.492 252.314 C 740.492 265.296 738.423 276.817 734.286 286.877 C 730.148 296.938 723.86 304.848 715.422 310.608 C 706.984 316.369 696.437 319.249 683.78 319.249 C 671.61 319.249 661.347 316.41 652.99 310.73 C 644.633 305.051 638.305 297.181 634.005 287.12 C 629.705 277.06 627.555 265.458 627.555 252.314 C 627.555 231.706 632.626 215.399 642.767 203.391 C 652.909 191.383 666.986 185.379 684.997 185.379 C 697.816 185.379 708.283 188.3 716.396 194.141 C 724.509 199.983 730.554 207.935 734.529 217.995 C 738.504 228.055 740.492 239.495 740.492 252.314 Z M 637.291 252.314 C 637.291 269.677 641.104 283.754 648.73 294.544 C 656.357 305.335 668.04 310.73 683.78 310.73 C 694.652 310.73 703.577 308.256 710.554 303.306 C 717.531 298.358 722.643 291.502 725.888 282.739 C 729.133 273.977 730.756 263.835 730.756 252.314 C 730.756 241.28 729.215 231.382 726.132 222.619 C 723.049 213.857 718.14 206.88 711.406 201.687 C 704.672 196.495 695.869 193.898 684.997 193.898 C 669.582 193.898 657.777 199.05 649.582 209.354 C 641.388 219.658 637.291 233.978 637.291 252.314 Z M 815.309 185.866 C 818.879 185.866 822.205 186.069 825.288 186.474 C 828.371 186.88 831.292 187.489 834.051 188.3 L 832.347 197.062 C 829.426 196.251 826.627 195.643 823.95 195.237 C 821.273 194.831 818.23 194.628 814.822 194.628 C 802.003 194.628 792.308 199.172 785.736 208.259 C 779.164 217.346 775.878 229.597 775.878 245.012 L 775.878 316.815 L 766.629 316.815 L 766.629 187.813 L 774.905 187.813 L 775.635 212.396 L 776.365 212.396 C 778.961 204.932 783.545 198.645 790.117 193.533 C 796.689 188.422 805.086 185.866 815.309 185.866 Z M 898.425 185.866 C 901.995 185.866 905.322 186.069 908.405 186.474 C 911.488 186.88 914.408 187.489 917.167 188.3 L 915.463 197.062 C 912.542 196.251 909.743 195.643 907.066 195.237 C 904.389 194.831 901.346 194.628 897.939 194.628 C 885.12 194.628 875.424 199.172 868.852 208.259 C 862.281 217.346 858.995 229.597 858.995 245.012 L 858.995 316.815 L 849.745 316.815 L 849.745 187.813 L 858.021 187.813 L 858.751 212.396 L 859.481 212.396 C 862.078 204.932 866.662 198.645 873.233 193.533 C 879.805 188.422 888.202 185.866 898.425 185.866 Z M 1033.155 252.314 C 1033.155 265.296 1031.086 276.817 1026.948 286.877 C 1022.81 296.938 1016.522 304.848 1008.085 310.608 C 999.647 316.369 989.1 319.249 976.443 319.249 C 964.273 319.249 954.01 316.41 945.653 310.73 C 937.296 305.051 930.967 297.181 926.667 287.12 C 922.367 277.06 920.217 265.458 920.217 252.314 C 920.217 231.706 925.288 215.399 935.43 203.391 C 945.571 191.383 959.648 185.379 977.66 185.379 C 990.479 185.379 1000.945 188.3 1009.058 194.141 C 1017.171 199.983 1023.216 207.935 1027.192 217.995 C 1031.167 228.055 1033.155 239.495 1033.155 252.314 Z M 929.953 252.314 C 929.953 269.677 933.766 283.754 941.393 294.544 C 949.02 305.335 960.703 310.73 976.443 310.73 C 987.314 310.73 996.239 308.256 1003.217 303.306 C 1010.194 298.358 1015.306 291.502 1018.551 282.739 C 1021.796 273.977 1023.419 263.835 1023.419 252.314 C 1023.419 241.28 1021.877 231.382 1018.794 222.619 C 1015.711 213.857 1010.803 206.88 1004.069 201.687 C 997.334 196.495 988.531 193.898 977.66 193.898 C 962.245 193.898 950.44 199.05 942.245 209.354 C 934.05 219.658 929.953 233.978 929.953 252.314 Z M 1206.792 229.678 C 1206.792 247.203 1203.952 262.699 1198.273 276.167 C 1192.594 289.635 1184.034 300.183 1172.594 307.809 C 1161.155 315.436 1146.835 319.249 1129.634 319.249 C 1112.596 319.249 1098.357 315.436 1086.918 307.809 C 1075.478 300.183 1066.918 289.635 1061.239 276.167 C 1055.56 262.699 1052.72 247.122 1052.72 229.434 C 1052.72 211.91 1055.681 196.454 1061.604 183.067 C 1067.527 169.68 1076.33 159.214 1088.013 151.668 C 1099.696 144.123 1113.976 140.35 1130.851 140.35 C 1155.191 140.35 1173.933 148.261 1187.077 164.082 C 1200.22 179.903 1206.792 201.768 1206.792 229.678 Z M 1062.456 229.434 C 1062.456 245.337 1064.89 259.373 1069.758 271.543 C 1074.626 283.713 1082.05 293.246 1092.029 300.142 C 1102.008 307.039 1114.625 310.487 1129.878 310.487 C 1145.131 310.487 1157.706 307.08 1167.605 300.264 C 1177.503 293.449 1184.845 283.997 1189.632 271.908 C 1194.419 259.819 1196.813 245.742 1196.813 229.678 C 1196.813 204.202 1191.174 184.406 1179.896 170.288 C 1168.619 156.171 1152.27 149.112 1130.851 149.112 C 1115.436 149.112 1102.698 152.52 1092.638 159.335 C 1082.577 166.151 1075.032 175.603 1070.001 187.691 C 1064.971 199.781 1062.456 213.695 1062.456 229.434 Z M 1331.76 272.516 C 1331.76 282.902 1329.123 291.542 1323.85 298.438 C 1318.576 305.335 1311.477 310.528 1302.552 314.016 C 1293.627 317.505 1283.648 319.249 1272.614 319.249 C 1261.742 319.249 1252.615 318.519 1245.232 317.058 C 1237.849 315.598 1231.236 313.895 1225.395 311.947 L 1225.395 301.968 C 1231.723 304.402 1238.863 306.431 1246.814 308.053 C 1254.765 309.676 1263.608 310.487 1273.344 310.487 C 1282.431 310.487 1290.626 309.149 1297.928 306.471 C 1305.23 303.793 1311.072 299.655 1315.453 294.057 C 1319.834 288.459 1322.024 281.36 1322.024 272.76 C 1322.024 265.134 1320.199 258.967 1316.548 254.261 C 1312.897 249.556 1307.582 245.54 1300.605 242.213 C 1293.628 238.887 1285.109 235.52 1275.048 232.112 C 1265.637 229.029 1257.321 225.621 1250.1 221.889 C 1242.879 218.157 1237.28 213.37 1233.305 207.528 C 1229.33 201.687 1227.342 193.979 1227.342 184.405 C 1227.342 174.832 1229.816 166.8 1234.765 160.309 C 1239.714 153.819 1246.327 148.91 1254.603 145.583 C 1262.878 142.257 1272.209 140.593 1282.594 140.593 C 1298.658 140.593 1313.586 143.677 1327.379 149.843 L 1323.728 158.118 C 1316.589 154.873 1309.571 152.601 1302.674 151.303 C 1295.778 150.005 1288.922 149.356 1282.107 149.356 C 1273.831 149.356 1266.286 150.614 1259.471 153.129 C 1252.656 155.644 1247.22 159.457 1243.163 164.568 C 1239.106 169.68 1237.078 176.211 1237.078 184.162 C 1237.078 192.438 1238.944 199.009 1242.676 203.877 C 1246.408 208.745 1251.56 212.68 1258.132 215.682 C 1264.704 218.684 1272.29 221.646 1280.89 224.566 C 1291.113 227.812 1300.037 231.341 1307.664 235.154 C 1315.291 238.968 1321.213 243.755 1325.432 249.515 C 1329.651 255.276 1331.76 262.943 1331.76 272.516 Z" style="white-space: pre; fill: rgb(255, 255, 255);"></path>
</svg>