<?xml version="1.0" encoding="utf-8"?>
<svg viewBox="0 0 64 64" xmlns="http://www.w3.org/2000/svg" xmlns:bx="https://boxy-svg.com">
  <defs>
    <bx:grid x="15.568" width="1" height="1&quot; style=&quot;pointer-events: none;" y="-5.373"/>
    <linearGradient id="color-0" bx:pinned="true">
      <title>Cosmic</title>
      <stop style="stop-color: #5570ff;" offset="0"/>
      <stop style="stop-color: #4dd3ff;" offset="1"/>
    </linearGradient>
    <linearGradient id="gradient-0" bx:pinned="true">
      <title>Midnight</title>
      <stop offset="0" style="stop-color: rgb(180, 0, 207);"/>
      <stop offset="1" style="stop-color: rgb(77, 211, 255);"/>
    </linearGradient>
  </defs>
  <g transform="matrix(1, 0, 0, 1, 0.001, -7.997997)" style="">
    <path d="M 13.45 41.685 L 6.436 29.701 L 27.337 41.769 L 13.45 41.685 Z M 50.551 41.685 L 57.566 29.701 L 36.664 41.769 L 50.551 41.685 Z M 27.427 42.089 L 31.999 52.149 L 36.664 41.532 M 15.179 38.744 L 11.584 32.674 L 22.233 38.822 L 15.179 38.744 Z" style="fill: rgb(216, 216, 216); fill-opacity: 0; stroke-linejoin: round; stroke-width: 2px; paint-order: fill; stroke: rgb(0, 0, 0);"/>
    <path d="M 31.999 37.342 L 2.999 21.34 M 31.999 37.342 L 60.999 21.34 M 32.001 32.674 L 32.001 37.342 M 32.001 63.721 L 61.001 47.719 M 31.999 64 L 2.999 47.998 M 61 15.998 L 32.001 26.252 M 2.999 15.998 L 31.999 26.252 M 3 15.998 L 3 47.719 M 61.001 15.998 L 61.001 47.719 M 32 32 L 61 15.998 M 32 32 L 3 15.998" style="fill: rgb(216, 216, 216); fill-opacity: 0.5; stroke-linecap: round; stroke-width: 2px; paint-order: fill; stroke: rgb(0, 0, 0);"/>
  </g>
</svg>