<?xml version="1.0" encoding="utf-8"?>
<svg viewBox="0 0 129 64" xmlns="http://www.w3.org/2000/svg" xmlns:bx="https://boxy-svg.com">
  <defs>
    <bx:grid x="15.568" width="1" height="1&quot; style=&quot;pointer-events: none;" y="-5.373"/>
    <linearGradient id="color-0" bx:pinned="true">
      <title>Cosmic</title>
      <stop style="stop-color: #5570ff;" offset="0"/>
      <stop style="stop-color: #4dd3ff;" offset="1"/>
    </linearGradient>
    <linearGradient id="gradient-0" bx:pinned="true">
      <title>Midnight</title>
      <stop offset="0" style="stop-color: rgb(180, 0, 207);"/>
      <stop offset="1" style="stop-color: rgb(77, 211, 255);"/>
    </linearGradient>
    <linearGradient gradientUnits="userSpaceOnUse" x1="111.812" y1="8.669" x2="111.812" y2="60.394" id="gradient-1">
      <stop offset="0" style="stop-color: rgba(0, 0, 0, 1)"/>
      <stop offset="1" style="stop-color: rgba(0, 0, 0, 1)"/>
    </linearGradient>
  </defs>
  <path d="M 81.094 39.294 Q 81.094 41.498 80.6 43.398 Q 80.106 45.298 79.099 46.704 Q 78.092 48.11 76.553 48.908 Q 75.014 49.706 72.886 49.706 Q 70.872 49.706 69.352 48.927 Q 67.832 48.148 66.806 46.742 Q 65.78 45.336 65.267 43.436 Q 64.754 41.536 64.754 39.294 Q 64.754 36.102 65.742 33.765 Q 66.73 31.428 68.611 30.155 Q 70.492 28.882 73.114 28.882 Q 75.964 28.882 77.712 30.269 Q 79.46 31.656 80.277 34.012 Q 81.094 36.368 81.094 39.294 Z M 65.818 39.294 Q 65.818 42.068 66.597 44.215 Q 67.376 46.362 68.953 47.559 Q 70.53 48.756 72.886 48.756 Q 75.356 48.756 76.933 47.54 Q 78.51 46.324 79.27 44.177 Q 80.03 42.03 80.03 39.294 Q 80.03 36.672 79.346 34.525 Q 78.662 32.378 77.142 31.105 Q 75.622 29.832 73.114 29.832 Q 69.618 29.832 67.718 32.34 Q 65.818 34.848 65.818 39.294 Z M 96.14 34.582 Q 95.874 33.594 95.627 32.815 Q 95.38 32.036 95.114 31.01 L 95.038 31.01 Q 94.772 32.036 94.544 32.853 Q 94.316 33.67 94.012 34.582 L 89.414 49.364 L 88.54 49.364 L 83.068 29.3 L 84.208 29.3 L 87.894 43.398 Q 88.198 44.576 88.388 45.317 Q 88.578 46.058 88.73 46.609 Q 88.882 47.16 88.996 47.768 L 89.072 47.768 Q 89.224 47.16 89.357 46.609 Q 89.49 46.058 89.718 45.317 Q 89.946 44.576 90.288 43.398 L 94.696 29.3 L 95.57 29.3 L 99.75 43.36 Q 100.054 44.31 100.263 45.089 Q 100.472 45.868 100.662 46.514 Q 100.852 47.16 101.004 47.768 L 101.08 47.768 Q 101.156 46.894 101.403 45.963 Q 101.65 45.032 102.03 43.398 L 105.526 29.3 L 106.59 29.3 L 101.536 49.364 L 100.586 49.364 Z M 111.412 49.326 L 110.386 49.326 L 110.386 20.446 L 111.412 20.446 Z M 139.303 35.722 Q 139.303 38.8 138.6 41.346 Q 137.897 43.892 136.491 45.773 Q 135.085 47.654 132.976 48.68 Q 130.867 49.706 128.055 49.706 Q 125.281 49.706 123.172 48.68 Q 121.063 47.654 119.657 45.773 Q 118.251 43.892 117.548 41.327 Q 116.845 38.762 116.845 35.684 Q 116.845 31.58 118.175 28.445 Q 119.505 25.31 122.051 23.543 Q 124.597 21.776 128.245 21.776 Q 131.779 21.776 134.249 23.429 Q 136.719 25.082 138.011 28.198 Q 139.303 31.314 139.303 35.722 Z M 117.909 35.684 Q 117.909 39.484 119.011 42.429 Q 120.113 45.374 122.374 47.065 Q 124.635 48.756 128.093 48.756 Q 131.589 48.756 133.812 47.103 Q 136.035 45.45 137.118 42.505 Q 138.201 39.56 138.201 35.722 Q 138.201 29.528 135.636 26.127 Q 133.071 22.726 128.245 22.726 Q 124.787 22.726 122.488 24.398 Q 120.189 26.07 119.049 28.996 Q 117.909 31.922 117.909 35.684 Z M 159.059 42.486 Q 159.059 44.918 157.9 46.533 Q 156.741 48.148 154.784 48.927 Q 152.827 49.706 150.471 49.706 Q 148.837 49.706 147.602 49.535 Q 146.367 49.364 145.398 49.117 Q 144.429 48.87 143.555 48.604 L 143.555 47.502 Q 144.999 48.034 146.69 48.395 Q 148.381 48.756 150.547 48.756 Q 152.561 48.756 154.252 48.091 Q 155.943 47.426 156.969 46.039 Q 157.995 44.652 157.995 42.448 Q 157.995 40.548 157.14 39.389 Q 156.285 38.23 154.708 37.451 Q 153.131 36.672 150.927 35.95 Q 148.875 35.228 147.279 34.411 Q 145.683 33.594 144.771 32.245 Q 143.859 30.896 143.859 28.654 Q 143.859 26.374 144.942 24.854 Q 146.025 23.334 147.868 22.574 Q 149.711 21.814 151.953 21.814 Q 153.663 21.814 155.259 22.137 Q 156.855 22.46 158.413 23.22 L 157.995 24.094 Q 156.361 23.334 154.841 23.049 Q 153.321 22.764 151.877 22.764 Q 150.015 22.764 148.419 23.372 Q 146.823 23.98 145.873 25.253 Q 144.923 26.526 144.923 28.578 Q 144.923 30.63 145.816 31.846 Q 146.709 33.062 148.21 33.765 Q 149.711 34.468 151.535 35.076 Q 153.815 35.798 155.506 36.672 Q 157.197 37.546 158.128 38.895 Q 159.059 40.244 159.059 42.486 Z" transform="matrix(1.312241, 0, 0, 1.234382, -82.230316, -10.777629)" style="fill: url(#gradient-1); white-space: pre;"/>
</svg>