<?xml version="1.0" encoding="utf-8"?>
<svg viewBox="0 0 192 64" xmlns="http://www.w3.org/2000/svg" xmlns:bx="https://boxy-svg.com">
  <defs>
    <bx:grid x="15.568" width="1" height="1&quot; style=&quot;pointer-events: none;" y="-5.373"/>
    <linearGradient id="color-0" bx:pinned="true">
      <title>Cosmic</title>
      <stop style="stop-color: #5570ff;" offset="0"/>
      <stop style="stop-color: #4dd3ff;" offset="1"/>
    </linearGradient>
    <linearGradient id="gradient-0" bx:pinned="true">
      <title>Midnight</title>
      <stop offset="0" style="stop-color: rgb(180, 0, 207);"/>
      <stop offset="1" style="stop-color: rgb(77, 211, 255);"/>
    </linearGradient>
    <linearGradient gradientUnits="userSpaceOnUse" x1="111.812" y1="8.669" x2="111.812" y2="60.394" id="gradient-1">
      <stop offset="0" style="stop-color: rgba(0, 0, 0, 1)"/>
      <stop offset="1" style="stop-color: rgba(0, 0, 0, 1)"/>
    </linearGradient>
  </defs>
  <g transform="matrix(1, 0, 0, 1, 0.001, -7.997997)" style="">
    <path d="M 13.45 41.685 L 6.436 29.701 L 27.337 41.769 L 13.45 41.685 Z M 50.551 41.685 L 57.566 29.701 L 36.664 41.769 L 50.551 41.685 Z M 27.427 42.089 L 31.999 52.149 L 36.664 41.532 M 15.179 38.744 L 11.584 32.674 L 22.233 38.822 L 15.179 38.744 Z" style="fill: rgb(216, 216, 216); fill-opacity: 0; stroke-linejoin: round; stroke-width: 2px; paint-order: fill; stroke: rgb(0, 0, 0);"/>
    <path d="M 31.999 37.342 L 2.999 21.34 M 31.999 37.342 L 60.999 21.34 M 32.001 32.674 L 32.001 37.342 M 32.001 63.721 L 61.001 47.719 M 31.999 64 L 2.999 47.998 M 61 15.998 L 32.001 26.252 M 2.999 15.998 L 31.999 26.252 M 3 15.998 L 3 47.719 M 61.001 15.998 L 61.001 47.719 M 32 32 L 61 15.998 M 32 32 L 3 15.998" style="fill: rgb(216, 216, 216); fill-opacity: 0.5; stroke-linecap: round; stroke-width: 2px; paint-order: fill; stroke: rgb(0, 0, 0);"/>
  </g>
  <path d="M 81.094 39.294 Q 81.094 41.498 80.6 43.398 Q 80.106 45.298 79.099 46.704 Q 78.092 48.11 76.553 48.908 Q 75.014 49.706 72.886 49.706 Q 70.872 49.706 69.352 48.927 Q 67.832 48.148 66.806 46.742 Q 65.78 45.336 65.267 43.436 Q 64.754 41.536 64.754 39.294 Q 64.754 36.102 65.742 33.765 Q 66.73 31.428 68.611 30.155 Q 70.492 28.882 73.114 28.882 Q 75.964 28.882 77.712 30.269 Q 79.46 31.656 80.277 34.012 Q 81.094 36.368 81.094 39.294 Z M 65.818 39.294 Q 65.818 42.068 66.597 44.215 Q 67.376 46.362 68.953 47.559 Q 70.53 48.756 72.886 48.756 Q 75.356 48.756 76.933 47.54 Q 78.51 46.324 79.27 44.177 Q 80.03 42.03 80.03 39.294 Q 80.03 36.672 79.346 34.525 Q 78.662 32.378 77.142 31.105 Q 75.622 29.832 73.114 29.832 Q 69.618 29.832 67.718 32.34 Q 65.818 34.848 65.818 39.294 Z M 96.138 34.582 Q 95.872 33.594 95.625 32.815 Q 95.378 32.036 95.112 31.01 L 95.036 31.01 Q 94.77 32.036 94.542 32.853 Q 94.314 33.67 94.01 34.582 L 89.412 49.364 L 88.538 49.364 L 83.066 29.3 L 84.206 29.3 L 87.892 43.398 Q 88.196 44.576 88.386 45.317 Q 88.576 46.058 88.728 46.609 Q 88.88 47.16 88.994 47.768 L 89.07 47.768 Q 89.222 47.16 89.355 46.609 Q 89.488 46.058 89.716 45.317 Q 89.944 44.576 90.286 43.398 L 94.694 29.3 L 95.568 29.3 L 99.748 43.36 Q 100.052 44.31 100.261 45.089 Q 100.47 45.868 100.66 46.514 Q 100.85 47.16 101.002 47.768 L 101.078 47.768 Q 101.154 46.894 101.401 45.963 Q 101.648 45.032 102.028 43.398 L 105.524 29.3 L 106.588 29.3 L 101.534 49.364 L 100.584 49.364 Z M 111.415 49.326 L 110.389 49.326 L 110.389 20.446 L 111.415 20.446 Z M 139.306 35.722 Q 139.306 38.8 138.603 41.346 Q 137.9 43.892 136.494 45.773 Q 135.088 47.654 132.979 48.68 Q 130.87 49.706 128.058 49.706 Q 125.284 49.706 123.175 48.68 Q 121.066 47.654 119.66 45.773 Q 118.254 43.892 117.551 41.327 Q 116.848 38.762 116.848 35.684 Q 116.848 31.58 118.178 28.445 Q 119.508 25.31 122.054 23.543 Q 124.6 21.776 128.248 21.776 Q 131.782 21.776 134.252 23.429 Q 136.722 25.082 138.014 28.198 Q 139.306 31.314 139.306 35.722 Z M 117.912 35.684 Q 117.912 39.484 119.014 42.429 Q 120.116 45.374 122.377 47.065 Q 124.638 48.756 128.096 48.756 Q 131.592 48.756 133.815 47.103 Q 136.038 45.45 137.121 42.505 Q 138.204 39.56 138.204 35.722 Q 138.204 29.528 135.639 26.127 Q 133.074 22.726 128.248 22.726 Q 124.79 22.726 122.491 24.398 Q 120.192 26.07 119.052 28.996 Q 117.912 31.922 117.912 35.684 Z M 159.062 42.486 Q 159.062 44.918 157.903 46.533 Q 156.744 48.148 154.787 48.927 Q 152.83 49.706 150.474 49.706 Q 148.84 49.706 147.605 49.535 Q 146.37 49.364 145.401 49.117 Q 144.432 48.87 143.558 48.604 L 143.558 47.502 Q 145.002 48.034 146.693 48.395 Q 148.384 48.756 150.55 48.756 Q 152.564 48.756 154.255 48.091 Q 155.946 47.426 156.972 46.039 Q 157.998 44.652 157.998 42.448 Q 157.998 40.548 157.143 39.389 Q 156.288 38.23 154.711 37.451 Q 153.134 36.672 150.93 35.95 Q 148.878 35.228 147.282 34.411 Q 145.686 33.594 144.774 32.245 Q 143.862 30.896 143.862 28.654 Q 143.862 26.374 144.945 24.854 Q 146.028 23.334 147.871 22.574 Q 149.714 21.814 151.956 21.814 Q 153.666 21.814 155.262 22.137 Q 156.858 22.46 158.416 23.22 L 157.998 24.094 Q 156.364 23.334 154.844 23.049 Q 153.324 22.764 151.88 22.764 Q 150.018 22.764 148.422 23.372 Q 146.826 23.98 145.876 25.253 Q 144.926 26.526 144.926 28.578 Q 144.926 30.63 145.819 31.846 Q 146.712 33.062 148.213 33.765 Q 149.714 34.468 151.538 35.076 Q 153.818 35.798 155.509 36.672 Q 157.2 37.546 158.131 38.895 Q 159.062 40.244 159.062 42.486 Z" transform="matrix(1.315671, 0, 0, 1.237537, -19.76832, -10.817888)" style="fill: url(#gradient-1); white-space: pre;"/>
</svg>